REM DIRINDEX 1\2,1\4,1\3\5,1\3\6,1\3\7
REM DIRNAME cjc082,folder01,folder02,folder03,folder04,folder05,folder06
TITLE ""
FILE "CD2Track41.mp3" MP3
  TRACK 01 AUDIO
    TITLE "0:"
    INDEX 01 00:00:00
  TRACK 02 AUDIO
    TITLE "5:cjc082_2080"
    INDEX 01 00:00:27
  TRACK 03 AUDIO
    TITLE "0:"
    INDEX 01 00:01:73
  TRACK 04 AUDIO
    TITLE "6:cjc082_2081"
    INDEX 01 00:02:40
  TRACK 05 AUDIO
    TITLE "0:"
    INDEX 01 00:04:64
  TRACK 06 AUDIO
    TITLE "5:cjc082_2082"
    INDEX 01 00:05:36
  TRACK 07 AUDIO
    TITLE "0:"
    INDEX 01 00:06:47
  TRACK 08 AUDIO
    TITLE "6:cjc082_2083"
    INDEX 01 00:07:19
  TRACK 09 AUDIO
    TITLE "0:"
    INDEX 01 00:08:34
  TRACK 10 AUDIO
    TITLE "5:cjc082_2084"
    INDEX 01 00:09:06
  TRACK 11 AUDIO
    TITLE "0:"
    INDEX 01 00:10:35
  TRACK 12 AUDIO
    TITLE "6:cjc082_2085"
    INDEX 01 00:11:05
  TRACK 13 AUDIO
    TITLE "0:"
    INDEX 01 00:12:32
  TRACK 14 AUDIO
    TITLE "5:cjc082_2086"
    INDEX 01 00:13:06
  TRACK 15 AUDIO
    TITLE "0:"
    INDEX 01 00:14:31
  TRACK 16 AUDIO
    TITLE "6:cjc082_2087"
    INDEX 01 00:15:03
  TRACK 17 AUDIO
    TITLE "0:"
    INDEX 01 00:16:20
  TRACK 18 AUDIO
    TITLE "5:cjc082_2088"
    INDEX 01 00:16:67
  TRACK 19 AUDIO
    TITLE "0:"
    INDEX 01 00:18:41
  TRACK 20 AUDIO
    TITLE "6:cjc082_2089"
    INDEX 01 00:19:13
  TRACK 21 AUDIO
    TITLE "0:"
    INDEX 01 00:21:31
  TRACK 22 AUDIO
    TITLE "5:cjc082_2090"
    INDEX 01 00:22:05
  TRACK 23 AUDIO
    TITLE "0:"
    INDEX 01 00:23:59
  TRACK 24 AUDIO
    TITLE "6:cjc082_2091"
    INDEX 01 00:24:29
  TRACK 25 AUDIO
    TITLE "0:"
    INDEX 01 00:26:52
  TRACK 26 AUDIO
    TITLE "5:cjc082_2092"
    INDEX 01 00:27:26
  TRACK 27 AUDIO
    TITLE "0:"
    INDEX 01 00:29:25
  TRACK 28 AUDIO
    TITLE "6:cjc082_2093"
    INDEX 01 00:29:72
  TRACK 29 AUDIO
    TITLE "0:"
    INDEX 01 00:32:58
  TRACK 30 AUDIO
    TITLE "5:cjc082_2094"
    INDEX 01 00:33:30
  TRACK 31 AUDIO
    TITLE "0:"
    INDEX 01 00:34:43
  TRACK 32 AUDIO
    TITLE "6:cjc082_2095"
    INDEX 01 00:35:21
  TRACK 33 AUDIO
    TITLE "0:"
    INDEX 01 00:37:38
  TRACK 34 AUDIO
    TITLE "5:cjc082_2096"
    INDEX 01 00:38:08
  TRACK 35 AUDIO
    TITLE "0:"
    INDEX 01 00:39:13
  TRACK 36 AUDIO
    TITLE "6:cjc082_2097"
    INDEX 01 00:39:60
  TRACK 37 AUDIO
    TITLE "0:"
    INDEX 01 00:41:71
  TRACK 38 AUDIO
    TITLE "5:cjc082_2098"
    INDEX 01 00:42:41
  TRACK 39 AUDIO
    TITLE "0:"
    INDEX 01 00:44:22
  TRACK 40 AUDIO
    TITLE "6:cjc082_2099"
    INDEX 01 00:44:69
  TRACK 41 AUDIO
    TITLE "0:"
    INDEX 01 00:46:70
  TRACK 42 AUDIO
    TITLE "5:cjc082_2100"
    INDEX 01 00:47:44
  TRACK 43 AUDIO
    TITLE "0:"
    INDEX 01 00:48:61
  TRACK 44 AUDIO
    TITLE "6:cjc082_2101"
    INDEX 01 00:49:29
  TRACK 45 AUDIO
    TITLE "0:"
    INDEX 01 00:50:37
  TRACK 46 AUDIO
    TITLE "5:cjc082_2102"
    INDEX 01 00:51:09
  TRACK 47 AUDIO
    TITLE "0:"
    INDEX 01 00:52:71
  TRACK 48 AUDIO
    TITLE "6:cjc082_2103"
    INDEX 01 00:53:43
  TRACK 49 AUDIO
    TITLE "0:"
    INDEX 01 00:55:55
  TRACK 50 AUDIO
    TITLE "5:cjc082_2104"
    INDEX 01 00:56:24
  TRACK 51 AUDIO
    TITLE "0:"
    INDEX 01 00:58:22
  TRACK 52 AUDIO
    TITLE "6:cjc082_2105"
    INDEX 01 00:58:71
  TRACK 53 AUDIO
    TITLE "0:"
    INDEX 01 01:01:23
  TRACK 54 AUDIO
    TITLE "5:cjc082_2106"
    INDEX 01 01:01:68
  TRACK 55 AUDIO
    TITLE "0:"
    INDEX 01 01:04:56
  TRACK 56 AUDIO
    TITLE "6:cjc082_2107"
    INDEX 01 01:05:32
  TRACK 57 AUDIO
    TITLE "0:"
    INDEX 01 01:08:11
  TRACK 58 AUDIO
    TITLE "5:cjc082_2108"
    INDEX 01 01:08:60
  TRACK 59 AUDIO
    TITLE "0:"
    INDEX 01 01:09:71
  TRACK 60 AUDIO
    TITLE "6:cjc082_2109"
    INDEX 01 01:10:39
  TRACK 61 AUDIO
    TITLE "0:"
    INDEX 01 01:11:64
  TRACK 62 AUDIO
    TITLE "7:cjc082_2110"
    INDEX 01 01:13:28
  TRACK 63 AUDIO
    TITLE "0:"
    INDEX 01 01:24:04
